<svg id="Layer_2" data-name="Layer 2" xmlns="http://www.w3.org/2000/svg" viewBox="0 0 452.8 497.2"><defs><style>.cls-1{fill:none;stroke:#fff;stroke-miterlimit:10;stroke-width:0.75px;}</style></defs><path class="cls-1" d="M172.72,229.5l45.37,44.76-45.37,46.4V142.9a1.66,1.66,0,0,1,2.83-1.17l42.57,43.13,180.4-.61,44.19-45.65" transform="translate(-81.32 -47.2)"/><path class="cls-1" d="M218.16,93.7l45.52-46.13h89l90,91,2.09,182.06-45.92,44.5-45.65,45.5L309.75,543.12a1.32,1.32,0,0,1-2.51,0L263.75,409.62l-45.66-44.75-44.3-43.17a1.67,1.67,0,0,0-2.22-.09l-42.11,44.1a1.65,1.65,0,0,1-2.2-.07l-45.55-45,0-.06v-90L128,184.49c.44-.54-.67-.23,0,0l135.6,43.75a1.66,1.66,0,0,1,.58,2.78l-46,43.24c-.55.51-3.68,0-2.93,0H398.38L353.6,231.45a1.65,1.65,0,0,1,.55-2.75L488.7,184.12a1.66,1.66,0,0,1,1.78.4l43.25,45.11v91l-44.47,44.45-90.89-90.85,44.33-44.07" transform="translate(-81.32 -47.2)"/><path class="cls-1" d="M398.5,93.88l-43.78,44.6-.29.12H263.48l-44-44.36a1.64,1.64,0,0,0-2.43.11l-44.36,44.56" transform="translate(-81.32 -47.2)"/><line class="cls-1" x1="136.77" y1="317.68" x2="317.57" y2="317.96"/><line class="cls-1" x1="182.44" y1="362.43" x2="271.91" y2="363.46"/></svg>