<svg id="Layer_2" data-name="Layer 2" xmlns="http://www.w3.org/2000/svg" viewBox="0 0 492.78 283.17"><defs><style>.cls-1{fill:none;stroke:#fff;stroke-miterlimit:10;stroke-width:0.75px;}</style></defs><polygon class="cls-1" points="316.06 282.64 492.24 107.06 456.88 71.7 352.03 36.34 141.7 36.34 105.73 72.31 141.09 106.45 105.73 142.42 141.09 177.17 105.73 213.14 141.09 247.89 247.97 212.53 282.12 247.69 316.06 282.64"/><polyline class="cls-1" points="282.12 247.69 317.28 212.53 422.32 176.75 386.78 141.81 386.78 71.7 352.03 36.34 316.67 0.38 247.97 0.38 281.31 36.34 281.31 107.93 246.52 142.16 281.83 177.28 317.28 212.53"/><line class="cls-1" x1="351.83" y1="177.05" x2="281.83" y2="177.28"/><polyline class="cls-1" points="317.28 212.53 247.97 212.53 141.09 177.17 35.59 212.53 0.38 177.17 0.38 107.28 35.91 71.74 70.8 107.28 70.8 178.03 35.59 212.53"/><polyline class="cls-1" points="35.91 71.74 141.09 106.45 211.64 36.34 211.64 177.28 247.97 212.53"/><polyline class="cls-1" points="457.05 142.14 422.32 107.23 456.88 71.7"/></svg>