<svg id="Layer_2" data-name="Layer 2" xmlns="http://www.w3.org/2000/svg" viewBox="0 0 498.13 500.83"><defs><style>.cls-1{fill:none;stroke:#fff;stroke-miterlimit:10;stroke-width:0.75px;}</style></defs><polyline class="cls-1" points="36.69 107.91 0.86 144.68 72.51 214.42 0.86 1.4 213.78 214.42 142.81 214.42 178.97 179.59"/><polygon class="cls-1" points="71.84 143.51 426.68 143.51 249.26 391.9 71.84 143.51"/><polyline class="cls-1" points="107.32 107.91 143.44 1.4 178.29 107.91 213.78 1.4 284.75 1.4 320.23 107.91 355.71 1.4 390.56 107.91 497.01 1.4 461.85 107.91 426.68 214.42 497.01 143.51 461.85 107.91"/><polygon class="cls-1" points="36.36 250.6 460.9 250.6 249.53 37.7 36.36 250.6"/><polyline class="cls-1" points="142.81 214.42 249.26 321.56 355.71 214.42 284.75 214.42 320.4 178.53 390.56 107.91"/><line class="cls-1" x1="355.71" y1="214.42" x2="320.4" y2="178.53"/><polyline class="cls-1" points="249.53 37.7 249.26 250.6 284.75 285.85 213.78 285.85 249.26 250.6"/><polyline class="cls-1" points="71.84 427.96 71.84 499.16 142.81 427.96"/><polyline class="cls-1" points="284.75 285.85 426.16 427.96 497.01 499.16 390.56 250.6 497.01 357.05 390.56 391.9 320.4 463.5 320.4 321.56 284.75 428.65 213.78 428.65 178.93 321.56 178.93 463.5 107.32 391.9 1.79 499.16 107.32 250.6 1.79 356.76 107.32 391.9 213.57 285.64"/><polyline class="cls-1" points="426.16 427.96 426.68 499.16 355.71 427.96"/></svg>