<svg id="Layer_2" data-name="Layer 2" xmlns="http://www.w3.org/2000/svg" viewBox="0 0 493.28 496.9"><defs><style>.cls-1{fill:none;stroke:#fff;stroke-miterlimit:10;stroke-width:0.75px;}</style></defs><path class="cls-1" d="M529.66,49.41l41,41.08L285.09,539.82a1.5,1.5,0,0,1-2.76-.73l.25-77.27,287-371.29L282.58,379.32Z" transform="translate(-77.82 -46.95)"/><path class="cls-1" d="M242.16,335.37l287.5-286a1.22,1.22,0,0,0-1.55-1.87L282.44,213.91a1.1,1.1,0,0,0-.22.21l-40.17,41.23a1,1,0,0,0-.23.63l-1.41,78.66A1,1,0,0,0,242.16,335.37Z" transform="translate(-77.82 -46.95)"/><polyline class="cls-1" points="204.76 496.83 162.54 290.27 204.5 167.05"/><polyline class="cls-1" points="204.76 414.87 162.54 290.27 204.76 332.38"/><path class="cls-1" d="M240.36,337.22l1.48,165.55a.28.28,0,0,1-.49.2l-42-40.89Z" transform="translate(-77.82 -46.95)"/><polyline class="cls-1" points="451.85 2.46 80.07 125.39 40.34 167.56 162.54 290.27 80.07 125.39"/><path class="cls-1" d="M240.36,337.22,78.81,255.13a.42.42,0,0,0-.48.67l39.83,40.35Z" transform="translate(-77.82 -46.95)"/><path class="cls-1" d="M240.36,337.22l-40,42.1L79.46,338.22a.51.51,0,0,1,.16-1Z" transform="translate(-77.82 -46.95)"/></svg>