<svg id="Layer_2" data-name="Layer 2" xmlns="http://www.w3.org/2000/svg" viewBox="0 0 381.35 496.6"><defs><style>.cls-1{fill:none;stroke:#fff;stroke-miterlimit:10;stroke-width:0.75px;}</style></defs><path class="cls-1" d="M423,543.64l37.94-38.19L422.54,391l38.39-38V276.08L422.54,162.14,270,85.3,81.39,48a.85.85,0,0,0-1,.83l.54,228.9L157.22,353,270,391.08h76.85l38.27,38.86,37.24,113.57A.39.39,0,0,0,423,543.64Z" transform="translate(-80.01 -47.55)"/><path class="cls-1" d="M80.38,47.82,384.84,352.93c.15.16.42.05.06-.78V200.21" transform="translate(-80.01 -47.55)"/><line class="cls-1" x1="228.87" y1="76.01" x2="228.87" y2="229.26"/><line class="cls-1" x1="267.02" y1="267.5" x2="114.87" y2="267.5"/><line class="cls-1" x1="39.41" y1="191.25" x2="190.95" y2="191.25"/><line class="cls-1" x1="152.56" y1="76.01" x2="152.56" y2="152.78"/><line class="cls-1" x1="39.55" y1="114.25" x2="115" y2="114.17"/></svg>