<svg id="Layer_2" data-name="Layer 2" xmlns="http://www.w3.org/2000/svg" viewBox="0 0 353.84 497.2"><defs><style>.cls-1{fill:none;stroke:#fff;stroke-miterlimit:10;stroke-width:0.75px;}</style></defs><path class="cls-1" d="M213.68,152.31,107.43,260.45V47.32H459a1.39,1.39,0,0,1,1,2.38L214.24,295.55,107.43,402.11V543.78H459.19a1.32,1.32,0,0,0,.94-2.26L214.47,296a.24.24,0,0,1,.17-.42H426.81l.39-213" transform="translate(-107.06 -46.95)"/><line class="cls-1" x1="248.66" y1="107" x2="248.66" y2="248.6"/><line class="cls-1" x1="0.38" y1="426.63" x2="143.02" y2="284.62"/><line class="cls-1" x1="0.38" y1="496.83" x2="177.86" y2="319.43"/><line class="cls-1" x1="71.7" y1="496.83" x2="214.06" y2="355.62"/><line class="cls-1" x1="143.02" y1="496.83" x2="248.66" y2="390.21"/><line class="cls-1" x1="214.06" y1="496.83" x2="284.7" y2="426.23"/><line class="cls-1" x1="284.7" y1="496.83" x2="320.02" y2="461.53"/></svg>