<svg id="Layer_2" data-name="Layer 2" xmlns="http://www.w3.org/2000/svg" viewBox="0 0 425.27 497.2"><defs><style>.cls-1{fill:none;stroke:#fff;stroke-miterlimit:10;stroke-width:0.75px;}</style></defs><path class="cls-1" d="M267.67,543.78H479.28a.77.77,0,0,0,.54-1.32l-35-34.09-141.61-.13,35.45-106.95-71-141.1.7,141.85L232.76,508.39l34.91,35.39H126.11L91.74,508.15,55.56,401.75l71-142-.46-211.65a.76.76,0,0,1,1.3-.53l34.31,34.88,70.78.23,33.84-35a.77.77,0,0,1,1.33.53V260.19l-141.1-.46v143l35.41,106-35.87,35.14" transform="translate(-55.16 -46.95)"/></svg>