<svg id="Layer_2" data-name="Layer 2" xmlns="http://www.w3.org/2000/svg" viewBox="0 0 243.87 489.82"><defs><style>.cls-1{fill:none;stroke:#fff;stroke-miterlimit:10;stroke-width:0.75px;}</style></defs><path class="cls-1" d="M238.13,50.42H320a.2.2,0,0,1,.16.07l41.37,41.37a.22.22,0,0,1,0,.32l-41.27,41.27a.22.22,0,0,0,0,.32l41.27,40.16a.22.22,0,0,1,0,.32l-41.27,41.27a.24.24,0,0,0,0,.33l41.26,39a.24.24,0,0,1,0,.33L319,295.45a.2.2,0,0,1-.15.06H238.13a.28.28,0,0,1-.17-.07L199,255.08a.22.22,0,0,1,0-.32l40.67-39.86a.22.22,0,0,0,0-.32L199,173.13a.24.24,0,0,1,0-.33l40.67-39.89a.22.22,0,0,0,0-.32L199,92.32a.23.23,0,0,1,0-.32L238,50.49A.23.23,0,0,1,238.13,50.42Z" transform="translate(-157.92 -50.04)"/><line class="cls-1" x1="40.96" y1="42.12" x2="40.96" y2="204.88"/><line class="cls-1" x1="203.78" y1="41.97" x2="203.78" y2="204.99"/><path class="cls-1" d="M401.41,214.33v81.08a.23.23,0,0,1-.06.16L320.3,377.43a.24.24,0,0,1-.16.07H240.37a.26.26,0,0,1-.16-.07L158.36,296a.24.24,0,0,1-.07-.16V214.33" transform="translate(-157.92 -50.04)"/><path class="cls-1" d="M279.85,336.5l.44,162.19a.22.22,0,0,1-.15.21L160,539a.23.23,0,0,0,.07.45H400.82a.23.23,0,0,0,.07-.45l-120.6-40.19" transform="translate(-157.92 -50.04)"/></svg>