<svg id="Layer_2" data-name="Layer 2" xmlns="http://www.w3.org/2000/svg" viewBox="0 0 497.3 499.09"><defs><style>.cls-1{fill:none;stroke:#fff;stroke-miterlimit:10;stroke-width:0.75px;}</style></defs><path class="cls-1" d="M491.5,508l36.25-35.58a.14.14,0,0,0,0-.2L491.5,437a.15.15,0,0,1,0-.2l35-35.35a.18.18,0,0,0,0-.1V259.24a.15.15,0,0,0,0-.09l-70.77-71.88a.13.13,0,0,1,0-.1V117.24a.13.13,0,0,1,.23-.09L491.64,152a.12.12,0,0,1,0,.19L349.72,295.34a.14.14,0,0,0,0,.19L491.17,436.71a.13.13,0,0,1-.09.23l-70.27.21a.14.14,0,0,0-.1.23L491.31,508A.12.12,0,0,0,491.5,508Z" transform="translate(-30.86 -45.14)"/><path class="cls-1" d="M420.25,436.91l-35.43-36a.18.18,0,0,1,0-.1V330.58a.18.18,0,0,1,0-.1l35.62-36.1a.13.13,0,0,1,.1,0H491a.13.13,0,0,1,.1.23l-71,71.13a.14.14,0,0,0,0,.1l.41,71A.13.13,0,0,1,420.25,436.91Z" transform="translate(-30.86 -45.14)"/><path class="cls-1" d="M526.49,330l-70.76-70.76a.14.14,0,0,1,0-.19l35.38-35.37a.14.14,0,0,1,.23.1v70.52" transform="translate(-30.86 -45.14)"/><path class="cls-1" d="M455.64,259.19h-70.8a.18.18,0,0,1-.1,0L208,80.77a.15.15,0,0,1,0-.2l35-35a.11.11,0,0,1,.09,0H315a.11.11,0,0,1,.09,0l34.53,35.62a.18.18,0,0,1,0,.09v142.3a.13.13,0,0,0,.13.13l71.08-.1,70.4-.11a.14.14,0,0,0,.13-.09l35.11-106.46s0,0,0,0V45.65a.13.13,0,0,0-.14-.13H384.92a.13.13,0,0,0-.14.13V116.6a.14.14,0,0,0,.23.1l35.93-35.38a.12.12,0,0,1,.19,0l34.42,35.51a.13.13,0,0,1,0,.19L349.63,223.7l70.61-71.12a.14.14,0,0,1,.23.1l.37,70.92" transform="translate(-30.86 -45.14)"/><path class="cls-1" d="M420.47,152.35H350a.13.13,0,0,0-.09.23L385.05,188" transform="translate(-30.86 -45.14)"/><path class="cls-1" d="M384.78,116.92l-70.27,70.87a.13.13,0,0,1-.23-.09L315,45.85a.13.13,0,0,0-.23-.1L208,152.29a.14.14,0,0,0,0,.14L243,259a.13.13,0,0,0,.22.06l35-35.5a.13.13,0,0,1,.1,0l71.35.21" transform="translate(-30.86 -45.14)"/><path class="cls-1" d="M243.07,258.86V45.65a.13.13,0,0,0-.14-.13h-70a.13.13,0,0,0-.14.13V188a.13.13,0,0,0,0,.1l70,70.88A.13.13,0,0,0,243.07,258.86Z" transform="translate(-30.86 -45.14)"/><line class="cls-1" x1="248.41" y1="36.03" x2="247.36" y2="178.35"/><path class="cls-1" d="M243.07,259.19H101.41a.18.18,0,0,1-.1,0L65.69,223.53a.18.18,0,0,1,0-.1v-71a.18.18,0,0,1,0-.1L136.83,81.4a.14.14,0,0,1,.23.1V222.66a.13.13,0,0,0,.26,0l35.44-105.78" transform="translate(-30.86 -45.14)"/><line class="cls-1" x1="141.9" y1="142.89" x2="70.32" y2="71.78"/><path class="cls-1" d="M207.91,294.83l-70.85-.25-70.26-.24a.13.13,0,0,0-.1.23L101,329.8a.13.13,0,0,0,.23-.09l.17-70.2a.13.13,0,0,0-.23-.09L31.28,329.81a.13.13,0,0,0,.09.23H242.74a.14.14,0,0,0,.1-.23L65.65,152.33l71.41-.08" transform="translate(-30.86 -45.14)"/><path class="cls-1" d="M243.07,330v71.35a.18.18,0,0,1,0,.1l-35,35.57a.14.14,0,0,0,0,.19L314.38,543.82a.14.14,0,0,0,.19,0l35-35.67a.18.18,0,0,0,0-.1v-142a.13.13,0,0,0-.23-.09L172.86,543.65a.13.13,0,0,1-.2,0L137.15,508.2a.14.14,0,0,1,0-.19l70.67-70.76a.14.14,0,0,0,0-.19l-35-35.52a.15.15,0,0,0-.2,0L137,437.11a.11.11,0,0,1-.09,0H65.79a.13.13,0,0,1-.14-.13V365.8a.13.13,0,0,1,0-.09L101.18,330l35.65-35.23a.14.14,0,0,1,.23.1v70.78a.15.15,0,0,1,0,.09L101.45,401.9a.14.14,0,0,1-.19,0L65.88,366a.14.14,0,0,1,.09-.24H279.18a.14.14,0,0,1,.14.14l-.64,71.21a.12.12,0,0,0,0,.1l70.91,70.92" transform="translate(-30.86 -45.14)"/><line class="cls-1" x1="70.32" y1="284.9" x2="106.11" y2="320.69"/><path class="cls-1" d="M172.76,472.35,243,543.65a.12.12,0,0,0,.19,0l70.68-71.26a.15.15,0,0,1,.09,0h70.8a.14.14,0,0,0,.09,0l35.43-34.94a.13.13,0,0,0-.1-.23H349.63" transform="translate(-30.86 -45.14)"/><path class="cls-1" d="M313.88,472.35V401.86a.14.14,0,0,1,.13-.14H456a.14.14,0,0,1,.14.14v70.49" transform="translate(-30.86 -45.14)"/><path class="cls-1" d="M313.88,401.72l-34.47-35.88a.14.14,0,0,1,0-.19l34.37-35.51a.14.14,0,0,1,.19,0l35.66,35.6" transform="translate(-30.86 -45.14)"/><line class="cls-1" x1="177.05" y1="392.01" x2="177.05" y2="320.6"/><line class="cls-1" x1="318.77" y1="107.21" x2="283.02" y2="71.78"/></svg>