<svg id="Layer_2" data-name="Layer 2" xmlns="http://www.w3.org/2000/svg" viewBox="0 0 387.27 497.2"><defs><style>.cls-1{fill:none;stroke:#fff;stroke-miterlimit:10;stroke-width:0.75px;}</style></defs><path class="cls-1" d="M272.55,368.34l35-178.33a.32.32,0,0,0-.09-.28l-34.86-35.2a.31.31,0,0,0-.22-.09H202a.32.32,0,0,0-.23.09l-35.62,35.62a.31.31,0,0,1-.33.08L63.56,155.43a.31.31,0,0,0-.24.58l137.51,69.63a.31.31,0,0,1,.16.18L236.78,332.3a.32.32,0,0,0,.08.12l70.22,70.67a.31.31,0,0,0,.22.09h69.64a.32.32,0,0,1,.1.62L273.6,438.42a.32.32,0,0,0,.1.62h69.45a.32.32,0,0,1,.22.54L272.73,508.9a.31.31,0,0,0,.32.52l105.41-34.84a.32.32,0,0,1,.42.3v69.93a.32.32,0,0,0,.6.14L449.63,403.3a.29.29,0,0,0,0-.24L413.86,296.58a.37.37,0,0,0-.07-.12l-70.71-71.15a.32.32,0,0,1,.33-.52l105,35.88a.32.32,0,0,0,.33-.52L414.06,225a.32.32,0,0,1,0-.45l35.07-34.19a.32.32,0,0,0-.22-.55H309.54a.31.31,0,0,1-.1-.61L413.69,154a.31.31,0,0,0,.2-.2L449.26,49.49a.32.32,0,0,0-.52-.33l-70.22,69.78a.32.32,0,0,1-.54-.22V49a.32.32,0,0,0-.54-.22l-69.73,70.18a.31.31,0,0,0-.09.22v70.55a.32.32,0,0,0,.09.23l34.35,34.35a.42.42,0,0,1,.09.16l36.72,178.7a.13.13,0,0,1,0,.06v71.23" transform="translate(-62.77 -48.29)"/></svg>