<svg id="Layer_2" data-name="Layer 2" xmlns="http://www.w3.org/2000/svg" viewBox="0 0 494.59 460.47"><defs><style>.cls-1{fill:none;stroke:#fff;stroke-miterlimit:10;stroke-width:0.75px;}</style></defs><polyline class="cls-1" points="35.88 0 35.88 141.68 71.13 248.53 176.89 354.29 317.55 425.14 494.51 460.1"/><line class="cls-1" x1="318.08" y1="353.58" x2="318.08" y2="426.55"/><polyline class="cls-1" points="282.63 390.06 317.55 425.14 212.22 460.1"/><line class="cls-1" x1="247.8" y1="425.08" x2="317.55" y2="425.14"/><polyline class="cls-1" points="106 354.04 176.89 354.29 212.22 318.96"/><polyline class="cls-1" points="71.17 318.96 176.89 354.29 212.22 248.56"/><line class="cls-1" x1="176.65" y1="283.39" x2="176.65" y2="354.29"/><polyline class="cls-1" points="0.27 248.56 71.13 248.53 106.75 212.48"/><polyline class="cls-1" points="35.88 212.48 71.13 248.53 71.17 177.66"/><polyline class="cls-1" points="0.27 106.56 35.88 141.68 71.17 106.56"/><polyline class="cls-1" points="0.27 35.82 35.88 71.47 71.17 35.82"/></svg>