<svg id="Layer_2" data-name="Layer 2" xmlns="http://www.w3.org/2000/svg" viewBox="0 0 272.12 497.2"><defs><style>.cls-1{fill:none;stroke:#fff;stroke-miterlimit:10;stroke-width:0.75px;}</style></defs><path class="cls-1" d="M314.74,47.84,181.45,179.72a1.8,1.8,0,0,0,0,2.56l44,43.23a1.8,1.8,0,0,1,0,2.56l-89.24,88a1.82,1.82,0,0,0,0,2.57l44.8,42.9a1.78,1.78,0,0,1,.54,1.28L179.33,542a1.81,1.81,0,0,0,2.16,1.77L405.59,500a1.8,1.8,0,0,0,.22-3.48L271.05,453a1.85,1.85,0,0,1-.7-.44L227.77,410a1.8,1.8,0,0,1,1.28-3.08h86.28a1.8,1.8,0,0,0,1.77-1.46L362,181.28a1.78,1.78,0,0,0,0-.89L317.72,48.57A1.81,1.81,0,0,0,314.74,47.84Z" transform="translate(-135.29 -46.95)"/></svg>